<?xml version="1.0" encoding="UTF-8"?>
<svg id="Calque_2" data-name="Calque 2" xmlns="http://www.w3.org/2000/svg" viewBox="0 0 806.6 863.38">
  <defs>
    <style>
      .cls-1 {
        fill: #f0efeb;
      }
    </style>
  </defs>
  <path class="cls-1" d="M471.86,727.32c21.26,39.1-.39,87.75-23.74,123.03-25.37,33.77-54.39-6.07-71.04-29.41-29.08-39.47-59.77-76.1-85.46-117.61-24.39-37.72-46-72.95-63.07-114.18-15.8-36.62-40.24-95.19-52.32-133.26-4.56-14.3-7.18-25.44-6.26-31.69.49-5.58,4.99-7.47,10.07-6.15,14.2,3.28,45.54,23.77,66.78,31.13,23.17,9.27,47.72,9.46,71.69,15.65,25.47,6.12,58.84,20.58,84.14,38.14,27.97,18.47,44.08,46.21,46.45,78.4,2.45,25.75-5.58,50.98-3.28,77.89,1.34,24.31,14.53,45.94,25.53,67.02l.51,1.04Z"/>
  <path class="cls-1" d="M137.56,256.53c2.56,26.19,6.33,55.27,17.75,78.54,5.85,11.04,15.04,20.1,26.44,31.07,6,5.73,12.47,11.82,18.86,17.59,41.11,40.14,60.9,25.08,62.37-20.08.35-20.8-.66-49.74,4.76-81.57,1.95-12.8,5.05-27.48.87-39.56-5.18-15.2-22.15-24.84-30.07-39.27-9.15-13.42-7.47-34.15-21.44-43.98-12.99-7.05-30.53,4.03-43.97,16.14-21.67,20.16-37.09,50.71-35.6,79.99l.04,1.14Z"/>
  <path class="cls-1" d="M705.93,416.25c5.1-22.97,8.32-52.52-1.78-73.65-11.1-23.42-37.65-14.14-50.97,1.81-27.37,28.76-29.65,76.39-54.67,105.15-19.15,23.25-53.64,29.48-73.91,50.6-20.04,21.61-19.23,49.94-24.82,80.02-3.55,24.34-8.19,49.66-6.5,73.83.74,23.81,20.39,38.08,40.12,29.56,20.95-8.64,31.39-25.21,49.24-44.95,28.93-34.19,59.33-71.01,79.92-108.02,19.07-34.84,33.07-74.65,43.12-113.19l.27-1.17Z"/>
  <path class="cls-1" d="M526.38,91.34c-21.76-41.38-7.95-78.56,40.96-48.4,18.17,10.59,34.31,24.42,49.64,38.6,31.56,30.39,69.43,67.3,92.51,108.14,10.84,19.82,16.49,43.37,4.62,62.11-21.23,32.4-68.32,35.29-91.02,1.33-7.7-9.86-14.07-20.98-20.64-31.68-15.05-25.59-33.47-48.95-48.04-75.57-9.59-17.4-18.65-36.35-27.56-53.58l-.47-.95Z"/>
  <path class="cls-1" d="M249.77,134.72c-4.72-28.44,25.33-51.76,42.3-74.53,34.5-47.33,142.17-91.64,180.28-29.97,16.41,23.81,12.08,44.11-14.47,57.69-18.74,10.7-39.67,19.82-59.07,29.51-35.83,15.79-124.91,70.47-148.81,18.2l-.23-.89Z"/>
</svg>