<svg width="20" height="20" viewBox="0 0 20 20" fill="none" xmlns="http://www.w3.org/2000/svg">
<g id="AirplaneTilt">
<path id="Vector" d="M14.4789 8.92177L16.7555 6.77958L16.7688 6.7663C17.2376 6.29741 17.5011 5.66145 17.5011 4.99833C17.5011 4.33522 17.2376 3.69926 16.7688 3.23036C16.2999 2.76147 15.6639 2.49805 15.0008 2.49805C14.3377 2.49805 13.7017 2.76147 13.2328 3.23036C13.2328 3.23505 13.2242 3.23896 13.2195 3.24364L11.0773 5.52021L4.59297 3.16083C4.48121 3.12018 4.36018 3.11226 4.24407 3.138C4.12797 3.16374 4.02162 3.22207 3.93751 3.30614L2.06251 5.18114C1.99717 5.24653 1.94715 5.3256 1.91605 5.41265C1.88496 5.4997 1.87355 5.59256 1.88267 5.68455C1.89179 5.77654 1.92119 5.86536 1.96877 5.94461C2.01635 6.02386 2.08092 6.09157 2.15782 6.14286L7.14922 9.47021L5.99141 10.6241H4.37501C4.20947 10.6242 4.05072 10.6899 3.9336 10.8069L2.0586 12.6819C1.98548 12.7549 1.93157 12.8448 1.9017 12.9437C1.87183 13.0425 1.86694 13.1473 1.88745 13.2485C1.90795 13.3497 1.95323 13.4443 2.01923 13.5238C2.08522 13.6032 2.16988 13.6651 2.26563 13.7038L5.14219 14.8546L6.29063 17.7257L6.29532 17.7382C6.33505 17.8343 6.39816 17.9191 6.47893 17.9847C6.5597 18.0503 6.65557 18.0947 6.75784 18.1138C6.86011 18.133 6.96556 18.1263 7.0646 18.0944C7.16364 18.0625 7.25315 18.0064 7.32501 17.9311L9.18985 16.0655C9.2482 16.0077 9.29459 15.939 9.32636 15.8632C9.35813 15.7875 9.37466 15.7062 9.37501 15.6241V14.0077L10.5281 12.8546L13.8555 17.846C13.9068 17.9229 13.9745 17.9875 14.0537 18.035C14.133 18.0826 14.2218 18.112 14.3138 18.1211C14.4058 18.1303 14.4986 18.1189 14.5857 18.0878C14.6727 18.0567 14.7518 18.0066 14.8172 17.9413L16.6922 16.0663C16.7763 15.9822 16.8346 15.8758 16.8603 15.7597C16.8861 15.6436 16.8782 15.5226 16.8375 15.4108L14.4789 8.92177ZM14.4734 16.5179L11.1461 11.5272C11.0951 11.4498 11.0275 11.3846 10.9482 11.3365C10.8688 11.2884 10.7798 11.2585 10.6875 11.2491C10.6664 11.2491 10.6461 11.2491 10.6258 11.2491C10.5436 11.2492 10.4623 11.2654 10.3864 11.2969C10.3105 11.3284 10.2416 11.3745 10.1836 11.4327L8.3086 13.3077C8.19132 13.4247 8.12529 13.5835 8.12501 13.7491V15.3655L7.10391 16.3866L6.20547 14.1397C6.17404 14.0617 6.12718 13.9909 6.06772 13.9314C6.00825 13.8719 5.93739 13.8251 5.85938 13.7936L3.61407 12.8952L4.63438 11.8741H6.25001C6.33211 11.8742 6.41341 11.8581 6.48929 11.8267C6.56516 11.7953 6.63411 11.7493 6.69219 11.6913L8.56719 9.8163C8.63267 9.75091 8.68281 9.67179 8.71399 9.58466C8.74518 9.49753 8.75662 9.40457 8.7475 9.31248C8.73838 9.22039 8.70893 9.13147 8.66126 9.05215C8.6136 8.97283 8.54891 8.90508 8.47188 8.8538L3.48126 5.52568L4.53594 4.47177L11.0375 6.83583C11.1521 6.87792 11.2764 6.88556 11.3953 6.85779C11.5141 6.83002 11.6222 6.76807 11.7063 6.67958L14.1234 4.10849C14.359 3.87978 14.6752 3.75295 15.0035 3.75542C15.3319 3.75789 15.6461 3.88946 15.8782 4.1217C16.1103 4.35393 16.2418 4.66818 16.2441 4.99653C16.2464 5.32488 16.1194 5.64096 15.8906 5.87646L13.3227 8.29286C13.2342 8.37691 13.1722 8.48502 13.1445 8.60386C13.1167 8.72269 13.1243 8.84706 13.1664 8.96161L15.5305 15.4632L14.4734 16.5179Z" fill="#343330"/>
</g>
</svg>
