<svg width="21" height="20" viewBox="0 0 21 20" fill="none" xmlns="http://www.w3.org/2000/svg">
<g id="Bicycle">
<path id="Vector" d="M17.2498 8.75C16.7979 8.7498 16.3498 8.8316 15.9271 8.99141L13.9631 5.625H15.9998C16.1655 5.625 16.3245 5.69085 16.4417 5.80806C16.5589 5.92527 16.6248 6.08424 16.6248 6.25C16.6248 6.41576 16.6906 6.57473 16.8078 6.69194C16.925 6.80915 17.084 6.875 17.2498 6.875C17.4155 6.875 17.5745 6.80915 17.6917 6.69194C17.8089 6.57473 17.8748 6.41576 17.8748 6.25C17.8748 5.75272 17.6772 5.27581 17.3256 4.92417C16.974 4.57254 16.4971 4.375 15.9998 4.375H12.8748C12.7652 4.37525 12.6576 4.40431 12.5628 4.45927C12.468 4.51422 12.3893 4.59314 12.3346 4.68811C12.2799 4.78308 12.2511 4.89077 12.2512 5.00036C12.2513 5.10995 12.2801 5.21759 12.3349 5.3125L13.2451 6.875H8.75446L7.47711 4.6875C7.42238 4.5927 7.34371 4.51393 7.24896 4.45909C7.15422 4.40425 7.04674 4.37525 6.93727 4.375H4.74977C4.58401 4.375 4.42504 4.44085 4.30783 4.55806C4.19062 4.67527 4.12477 4.83424 4.12477 5C4.12477 5.16576 4.19062 5.32473 4.30783 5.44194C4.42504 5.55915 4.58401 5.625 4.74977 5.625H6.57868L7.64977 7.46172L6.42243 9.14531C5.57916 8.72331 4.60812 8.63355 3.70178 8.89383C2.79545 9.15411 2.01999 9.74542 1.52913 10.5505C1.03826 11.3557 0.867828 12.3159 1.0516 13.2407C1.23538 14.1656 1.75996 14.9877 2.52134 15.544C3.28273 16.1003 4.22534 16.3502 5.16233 16.2442C6.09932 16.1382 6.96228 15.6841 7.58015 14.9717C8.19802 14.2594 8.5257 13.3409 8.49822 12.3983C8.47074 11.4558 8.09012 10.5579 7.4318 9.88281L8.33727 8.64063L10.7724 12.8125C10.8105 12.8889 10.8638 12.9568 10.9291 13.0118C10.9943 13.0668 11.0702 13.1079 11.152 13.1325C11.2337 13.1571 11.3197 13.1646 11.4045 13.1547C11.4893 13.1448 11.5711 13.1176 11.645 13.0748C11.7189 13.0321 11.7833 12.9746 11.8341 12.906C11.8849 12.8374 11.9212 12.7591 11.9406 12.676C11.96 12.5928 11.9621 12.5066 11.9469 12.4226C11.9317 12.3386 11.8994 12.2586 11.8521 12.1875L9.48336 8.125H13.974L14.8482 9.62266C14.1714 10.1883 13.7156 10.9745 13.5611 11.843C13.4065 12.7114 13.5631 13.6065 14.0032 14.371C14.4433 15.1354 15.1388 15.7203 15.9674 16.0227C16.796 16.3251 17.7047 16.3258 18.5338 16.0245C19.3628 15.7233 20.0592 15.1394 20.5003 14.3756C20.9415 13.6117 21.0993 12.7168 20.946 11.8482C20.7927 10.9795 20.338 10.1927 19.662 9.62606C18.986 9.05942 18.1319 8.74922 17.2498 8.75ZM7.24977 12.5C7.24992 13.0347 7.07861 13.5554 6.76101 13.9856C6.4434 14.4158 5.99623 14.7328 5.48517 14.8901C4.9741 15.0474 4.42607 15.0367 3.92154 14.8595C3.41701 14.6824 2.98258 14.3481 2.68203 13.9058C2.38148 13.4636 2.23066 12.9366 2.25171 12.4023C2.27276 11.868 2.46457 11.3545 2.79898 10.9372C3.13339 10.52 3.59277 10.2209 4.10968 10.084C4.62658 9.94712 5.17376 9.97955 5.67086 10.1766L4.24508 12.1297C4.19317 12.1957 4.1551 12.2715 4.13315 12.3526C4.11119 12.4336 4.10579 12.5183 4.11729 12.6015C4.12878 12.6847 4.15692 12.7647 4.20003 12.8368C4.24314 12.9089 4.30033 12.9715 4.3682 13.021C4.43606 13.0705 4.5132 13.1058 4.59501 13.1248C4.67681 13.1438 4.76161 13.1461 4.84434 13.1316C4.92706 13.1171 5.00601 13.0861 5.07648 13.0404C5.14694 12.9947 5.20747 12.9352 5.25446 12.8656L6.68024 10.9125C7.04893 11.3593 7.25032 11.9207 7.24977 12.5ZM17.2498 15C16.7546 14.9996 16.2707 14.8522 15.8594 14.5765C15.4482 14.3007 15.128 13.909 14.9397 13.4511C14.7513 12.9932 14.7031 12.4896 14.8013 12.0043C14.8995 11.5189 15.1396 11.0737 15.4912 10.725L16.7099 12.8125C16.748 12.8889 16.8013 12.9568 16.8666 13.0118C16.9318 13.0668 17.0077 13.1079 17.0895 13.1325C17.1712 13.1571 17.2572 13.1646 17.342 13.1547C17.4268 13.1448 17.5086 13.1176 17.5825 13.0748C17.6564 13.0321 17.7208 12.9746 17.7716 12.906C17.8224 12.8374 17.8587 12.7591 17.8781 12.676C17.8975 12.5928 17.8996 12.5066 17.8844 12.4226C17.8692 12.3386 17.8369 12.2586 17.7896 12.1875L16.5701 10.0945C16.914 9.99718 17.2747 9.97469 17.628 10.0286C17.9814 10.0825 18.319 10.2115 18.6182 10.407C18.9174 10.6024 19.1713 10.8597 19.3626 11.1616C19.554 11.4635 19.6783 11.8029 19.7274 12.1569C19.7764 12.5109 19.749 12.8713 19.647 13.2138C19.5449 13.5564 19.3706 13.873 19.1358 14.1425C18.901 14.4119 18.6112 14.6279 18.2858 14.7758C17.9605 14.9237 17.6072 15.0002 17.2498 15Z" fill="#343330"/>
</g>
</svg>
