<svg width="25" height="24" viewBox="0 0 25 24" fill="none" xmlns="http://www.w3.org/2000/svg">
<g id="BookOpenText">
<path id="Vector" d="M22.25 4.5H15.5C14.9178 4.5 14.3437 4.63554 13.8229 4.8959C13.3022 5.15625 12.8493 5.53426 12.5 6C12.1507 5.53426 11.6978 5.15625 11.1771 4.8959C10.6563 4.63554 10.0822 4.5 9.5 4.5H2.75C2.55109 4.5 2.36032 4.57902 2.21967 4.71967C2.07902 4.86032 2 5.05109 2 5.25V18.75C2 18.9489 2.07902 19.1397 2.21967 19.2803C2.36032 19.421 2.55109 19.5 2.75 19.5H9.5C10.0967 19.5 10.669 19.7371 11.091 20.159C11.5129 20.581 11.75 21.1533 11.75 21.75C11.75 21.9489 11.829 22.1397 11.9697 22.2803C12.1103 22.421 12.3011 22.5 12.5 22.5C12.6989 22.5 12.8897 22.421 13.0303 22.2803C13.171 22.1397 13.25 21.9489 13.25 21.75C13.25 21.1533 13.4871 20.581 13.909 20.159C14.331 19.7371 14.9033 19.5 15.5 19.5H22.25C22.4489 19.5 22.6397 19.421 22.7803 19.2803C22.921 19.1397 23 18.9489 23 18.75V5.25C23 5.05109 22.921 4.86032 22.7803 4.71967C22.6397 4.57902 22.4489 4.5 22.25 4.5ZM9.5 18H3.5V6H9.5C10.0967 6 10.669 6.23705 11.091 6.65901C11.5129 7.08097 11.75 7.65326 11.75 8.25V18.75C11.1015 18.262 10.3116 17.9987 9.5 18ZM21.5 18H15.5C14.6884 17.9987 13.8985 18.262 13.25 18.75V8.25C13.25 7.65326 13.4871 7.08097 13.909 6.65901C14.331 6.23705 14.9033 6 15.5 6H21.5V18ZM15.5 8.25H19.25C19.4489 8.25 19.6397 8.32902 19.7803 8.46967C19.921 8.61032 20 8.80109 20 9C20 9.19891 19.921 9.38968 19.7803 9.53033C19.6397 9.67098 19.4489 9.75 19.25 9.75H15.5C15.3011 9.75 15.1103 9.67098 14.9697 9.53033C14.829 9.38968 14.75 9.19891 14.75 9C14.75 8.80109 14.829 8.61032 14.9697 8.46967C15.1103 8.32902 15.3011 8.25 15.5 8.25ZM20 12C20 12.1989 19.921 12.3897 19.7803 12.5303C19.6397 12.671 19.4489 12.75 19.25 12.75H15.5C15.3011 12.75 15.1103 12.671 14.9697 12.5303C14.829 12.3897 14.75 12.1989 14.75 12C14.75 11.8011 14.829 11.6103 14.9697 11.4697C15.1103 11.329 15.3011 11.25 15.5 11.25H19.25C19.4489 11.25 19.6397 11.329 19.7803 11.4697C19.921 11.6103 20 11.8011 20 12ZM20 15C20 15.1989 19.921 15.3897 19.7803 15.5303C19.6397 15.671 19.4489 15.75 19.25 15.75H15.5C15.3011 15.75 15.1103 15.671 14.9697 15.5303C14.829 15.3897 14.75 15.1989 14.75 15C14.75 14.8011 14.829 14.6103 14.9697 14.4697C15.1103 14.329 15.3011 14.25 15.5 14.25H19.25C19.4489 14.25 19.6397 14.329 19.7803 14.4697C19.921 14.6103 20 14.8011 20 15Z" fill="#3E5544"/>
</g>
</svg>
