<svg width="24" height="24" viewBox="0 0 24 24" fill="none" xmlns="http://www.w3.org/2000/svg">
<g id="Books">
<path id="Vector" d="M21.7172 18.2391L18.6056 3.44532C18.5654 3.25186 18.4873 3.06826 18.3759 2.90506C18.2645 2.74186 18.1219 2.60229 17.9564 2.49435C17.7909 2.38642 17.6057 2.31225 17.4114 2.27611C17.2171 2.23997 17.0176 2.24257 16.8244 2.28376L12.4359 3.22689C12.0478 3.31188 11.7089 3.5467 11.4929 3.88027C11.277 4.21384 11.2015 4.61919 11.2828 5.00814L14.3944 19.8019C14.4637 20.1394 14.6471 20.4428 14.9138 20.661C15.1805 20.8792 15.5142 20.9989 15.8588 21C15.9653 20.9999 16.0715 20.9886 16.1756 20.9663L20.5641 20.0231C20.9527 19.9379 21.292 19.7027 21.5079 19.3685C21.7239 19.0344 21.7991 18.6284 21.7172 18.2391ZM12.75 4.70157C12.75 4.69595 12.75 4.69314 12.75 4.69314L17.1375 3.75564L17.4497 5.24345L13.0622 6.18751L12.75 4.70157ZM13.3706 7.65189L17.76 6.7097L18.0731 8.20032L13.6875 9.14345L13.3706 7.65189ZM13.9931 10.6116L18.3825 9.66845L19.6294 15.5972L15.24 16.5403L13.9931 10.6116ZM20.25 18.5569L15.8625 19.4944L15.5503 18.0066L19.9378 17.0625L20.25 18.5485C20.25 18.5541 20.25 18.5569 20.25 18.5569ZM9.75 3.00001H5.25C4.85218 3.00001 4.47064 3.15805 4.18934 3.43935C3.90804 3.72066 3.75 4.10219 3.75 4.50001V19.5C3.75 19.8978 3.90804 20.2794 4.18934 20.5607C4.47064 20.842 4.85218 21 5.25 21H9.75C10.1478 21 10.5294 20.842 10.8107 20.5607C11.092 20.2794 11.25 19.8978 11.25 19.5V4.50001C11.25 4.10219 11.092 3.72066 10.8107 3.43935C10.5294 3.15805 10.1478 3.00001 9.75 3.00001ZM5.25 4.50001H9.75V6.00001H5.25V4.50001ZM5.25 7.50001H9.75V16.5H5.25V7.50001ZM9.75 19.5H5.25V18H9.75V19.5Z" fill="#0D0802"/>
</g>
</svg>
