<svg width="20" height="20" viewBox="0 0 20 20" fill="none" xmlns="http://www.w3.org/2000/svg">
<g id="Car">
<path id="Vector" d="M18.75 8.125H17.9062L15.7359 3.24219C15.6377 3.02127 15.4775 2.83358 15.2748 2.70185C15.0721 2.57012 14.8355 2.5 14.5938 2.5H5.40625C5.16448 2.5 4.92791 2.57012 4.72518 2.70185C4.52245 2.83358 4.36228 3.02127 4.26406 3.24219L2.09375 8.125H1.25C1.08424 8.125 0.925268 8.19085 0.808058 8.30806C0.690848 8.42527 0.625 8.58424 0.625 8.75C0.625 8.91576 0.690848 9.07473 0.808058 9.19194C0.925268 9.30915 1.08424 9.375 1.25 9.375H1.875V15.625C1.875 15.9565 2.0067 16.2745 2.24112 16.5089C2.47554 16.7433 2.79348 16.875 3.125 16.875H5C5.33152 16.875 5.64946 16.7433 5.88388 16.5089C6.1183 16.2745 6.25 15.9565 6.25 15.625V14.375H13.75V15.625C13.75 15.9565 13.8817 16.2745 14.1161 16.5089C14.3505 16.7433 14.6685 16.875 15 16.875H16.875C17.2065 16.875 17.5245 16.7433 17.7589 16.5089C17.9933 16.2745 18.125 15.9565 18.125 15.625V9.375H18.75C18.9158 9.375 19.0747 9.30915 19.1919 9.19194C19.3092 9.07473 19.375 8.91576 19.375 8.75C19.375 8.58424 19.3092 8.42527 19.1919 8.30806C19.0747 8.19085 18.9158 8.125 18.75 8.125ZM5.40625 3.75H14.5938L16.5383 8.125H3.46172L5.40625 3.75ZM5 15.625H3.125V14.375H5V15.625ZM15 15.625V14.375H16.875V15.625H15ZM16.875 13.125H3.125V9.375H16.875V13.125ZM4.375 11.25C4.375 11.0842 4.44085 10.9253 4.55806 10.8081C4.67527 10.6908 4.83424 10.625 5 10.625H6.25C6.41576 10.625 6.57473 10.6908 6.69194 10.8081C6.80915 10.9253 6.875 11.0842 6.875 11.25C6.875 11.4158 6.80915 11.5747 6.69194 11.6919C6.57473 11.8092 6.41576 11.875 6.25 11.875H5C4.83424 11.875 4.67527 11.8092 4.55806 11.6919C4.44085 11.5747 4.375 11.4158 4.375 11.25ZM13.125 11.25C13.125 11.0842 13.1908 10.9253 13.3081 10.8081C13.4253 10.6908 13.5842 10.625 13.75 10.625H15C15.1658 10.625 15.3247 10.6908 15.4419 10.8081C15.5592 10.9253 15.625 11.0842 15.625 11.25C15.625 11.4158 15.5592 11.5747 15.4419 11.6919C15.3247 11.8092 15.1658 11.875 15 11.875H13.75C13.5842 11.875 13.4253 11.8092 13.3081 11.6919C13.1908 11.5747 13.125 11.4158 13.125 11.25Z" fill="#343330"/>
</g>
</svg>
