<svg width="24" height="24" viewBox="0 0 24 24" fill="none" xmlns="http://www.w3.org/2000/svg">
<g id="fluent:vehicle-subway-clock-20-filled">
<path id="Vector" d="M11.7998 7.49998C11.7998 8.69345 11.3257 9.83804 10.4818 10.682C9.63785 11.5259 8.49326 12 7.29979 12C6.10632 12 4.96173 11.5259 4.11782 10.682C3.27391 9.83804 2.7998 8.69345 2.7998 7.49998C2.7998 6.30651 3.27391 5.16193 4.11782 4.31801C4.96173 3.4741 6.10632 3 7.29979 3C8.49326 3 9.63785 3.4741 10.4818 4.31801C11.3257 5.16193 11.7998 6.30651 11.7998 7.49998ZM7.29979 4.99999C7.16718 4.99999 7.04 5.05267 6.94624 5.14644C6.85247 5.24021 6.79979 5.36738 6.79979 5.49999V7.49998C6.79979 7.63259 6.85247 7.75977 6.94624 7.85354C7.04 7.9473 7.16718 7.99998 7.29979 7.99998H8.79978C8.93239 7.99998 9.05957 7.9473 9.15334 7.85354C9.2471 7.75977 9.29978 7.63259 9.29978 7.49998C9.29978 7.36738 9.2471 7.2402 9.15334 7.14643C9.05957 7.05266 8.93239 6.99999 8.79978 6.99999H7.79979V5.49999C7.79979 5.36738 7.74711 5.24021 7.65334 5.14644C7.55957 5.05267 7.4324 4.99999 7.29979 4.99999ZM5.79979 13V12.793C5.45443 12.6949 5.1195 12.5633 4.7998 12.4V16C4.79982 16.7405 5.07377 17.4549 5.56891 18.0056C6.06405 18.5563 6.74539 18.9044 7.48179 18.9829L5.0968 20.0429C5.03678 20.0696 4.98261 20.1078 4.93736 20.1554C4.89212 20.203 4.85669 20.259 4.83311 20.3203C4.80952 20.3816 4.79824 20.447 4.7999 20.5126C4.80156 20.5782 4.81614 20.6429 4.8428 20.7029C4.86946 20.7629 4.90767 20.8171 4.95527 20.8624C5.00286 20.9076 5.0589 20.943 5.12019 20.9666C5.18148 20.9902 5.24681 21.0015 5.31246 20.9998C5.3781 20.9982 5.44278 20.9836 5.50279 20.9569L9.90578 18.9999H13.6938L18.0968 20.9569C18.1568 20.9836 18.2214 20.9982 18.2871 20.9998C18.3527 21.0015 18.4181 20.9902 18.4794 20.9666C18.5406 20.943 18.5967 20.9076 18.6443 20.8624C18.6919 20.8171 18.7301 20.7629 18.7567 20.7029C18.7834 20.6429 18.798 20.5782 18.7996 20.5126C18.8013 20.447 18.79 20.3816 18.7664 20.3203C18.7429 20.259 18.7074 20.203 18.6622 20.1554C18.6169 20.1078 18.5628 20.0696 18.5027 20.0429L16.1188 18.9829C16.855 18.9042 17.5361 18.556 18.031 18.0053C18.5259 17.4546 18.7997 16.7404 18.7997 16V7.99998C18.7997 7.20434 18.4837 6.44128 17.9211 5.87867C17.3585 5.31606 16.5954 4.99999 15.7998 4.99999H12.1998C12.3624 5.31733 12.4934 5.65066 12.5928 5.99999H15.7998C16.3302 5.99999 16.8389 6.2107 17.214 6.58577C17.589 6.96084 17.7998 7.46955 17.7998 7.99998V13H5.79979ZM9.79978 16C9.79978 16.2652 9.69442 16.5195 9.50689 16.7071C9.31935 16.8946 9.065 17 8.79978 17C8.53457 17 8.28021 16.8946 8.09268 16.7071C7.90514 16.5195 7.79979 16.2652 7.79979 16C7.79979 15.7347 7.90514 15.4804 8.09268 15.2928C8.28021 15.1053 8.53457 15 8.79978 15C9.065 15 9.31935 15.1053 9.50689 15.2928C9.69442 15.4804 9.79978 15.7347 9.79978 16ZM14.7998 17C14.5345 17 14.2802 16.8946 14.0927 16.7071C13.9051 16.5195 13.7998 16.2652 13.7998 16C13.7998 15.7347 13.9051 15.4804 14.0927 15.2928C14.2802 15.1053 14.5345 15 14.7998 15C15.065 15 15.3193 15.1053 15.5069 15.2928C15.6944 15.4804 15.7998 15.7347 15.7998 16C15.7998 16.2652 15.6944 16.5195 15.5069 16.7071C15.3193 16.8946 15.065 17 14.7998 17Z" fill="#860EFF"/>
</g>
</svg>
