<svg xmlns="http://www.w3.org/2000/svg" width="25" height="24" viewBox="0 0 25 24" fill="none">
  <path d="M20.75 6.75009H17.4613C17.4978 6.71915 17.5353 6.68915 17.5709 6.65634C17.8557 6.40338 18.0851 6.09439 18.245 5.7487C18.4049 5.40301 18.4917 5.02805 18.5 4.64728C18.5123 4.23072 18.4394 3.81604 18.2856 3.4287C18.1319 3.04136 17.9006 2.68953 17.606 2.39481C17.3113 2.10008 16.9596 1.86869 16.5723 1.71483C16.185 1.56097 15.7703 1.4879 15.3538 1.50009C14.9728 1.50829 14.5977 1.59504 14.2518 1.75491C13.906 1.91477 13.5968 2.14431 13.3438 2.42915C12.9936 2.83499 12.7089 3.293 12.5 3.78665C12.2911 3.293 12.0064 2.83499 11.6562 2.42915C11.4032 2.14431 11.094 1.91477 10.7482 1.75491C10.4023 1.59504 10.0272 1.50829 9.64625 1.50009C9.22969 1.4879 8.81503 1.56097 8.42774 1.71483C8.04044 1.86869 7.68868 2.10008 7.39405 2.39481C7.09941 2.68953 6.86812 3.04136 6.71438 3.4287C6.56064 3.81604 6.48768 4.23072 6.5 4.64728C6.50833 5.02805 6.59514 5.40301 6.755 5.7487C6.91486 6.09439 7.14434 6.40338 7.42906 6.65634C7.46469 6.68728 7.50219 6.71728 7.53875 6.75009H4.25C3.85218 6.75009 3.47064 6.90812 3.18934 7.18943C2.90804 7.47073 2.75 7.85226 2.75 8.25009V11.2501C2.75 11.6479 2.90804 12.0294 3.18934 12.3107C3.47064 12.5921 3.85218 12.7501 4.25 12.7501V18.7501C4.25 19.1479 4.40804 19.5294 4.68934 19.8107C4.97064 20.0921 5.35218 20.2501 5.75 20.2501H19.25C19.6478 20.2501 20.0294 20.0921 20.3107 19.8107C20.592 19.5294 20.75 19.1479 20.75 18.7501V12.7501C21.1478 12.7501 21.5294 12.5921 21.8107 12.3107C22.092 12.0294 22.25 11.6479 22.25 11.2501V8.25009C22.25 7.85226 22.092 7.47073 21.8107 7.18943C21.5294 6.90812 21.1478 6.75009 20.75 6.75009ZM14.4688 3.4229C14.5875 3.29176 14.7321 3.18659 14.8934 3.11399C15.0547 3.04139 15.2293 3.00293 15.4062 3.00103H15.4522C15.6595 3.00232 15.8645 3.04499 16.0552 3.12653C16.2458 3.20807 16.4183 3.32684 16.5624 3.47588C16.7066 3.62493 16.8195 3.80124 16.8947 3.9945C16.9698 4.18776 17.0056 4.39407 17 4.60134C16.9981 4.77824 16.9596 4.95284 16.887 5.11417C16.8144 5.27551 16.7093 5.42009 16.5781 5.53884C15.6884 6.32634 14.2119 6.60384 13.2969 6.70134C13.4094 5.70853 13.7188 4.26571 14.4688 3.4229ZM8.46031 3.45665C8.75088 3.16611 9.14441 3.00203 9.55531 3.00009H9.60125C9.77815 3.002 9.95275 3.04046 10.1141 3.11306C10.2754 3.18566 10.42 3.29083 10.5388 3.42196C11.3253 4.31071 11.6028 5.78446 11.7003 6.69571C10.7891 6.60196 9.31531 6.32071 8.42656 5.53415C8.29543 5.4154 8.19026 5.27082 8.11766 5.10949C8.04506 4.94815 8.0066 4.77355 8.00469 4.59665C7.99887 4.38593 8.03593 4.17623 8.11361 3.98027C8.19128 3.7843 8.30796 3.60616 8.45656 3.45665H8.46031ZM4.25 8.25009H11.75V11.2501H4.25V8.25009ZM5.75 12.7501H11.75V18.7501H5.75V12.7501ZM19.25 18.7501H13.25V12.7501H19.25V18.7501ZM20.75 11.2501H13.25V8.25009H20.75V11.2501Z" fill="#3E5544"/>
</svg>