<svg width="24" height="24" viewBox="0 0 24 24" fill="none" xmlns="http://www.w3.org/2000/svg">
<g id="material-symbols:hotel">
<path id="Vector" d="M3 17.636V5.36328H4.63636V13.5451H11.1818V6.99964H17.7273C18.6273 6.99964 19.3977 7.3201 20.0386 7.96101C20.6795 8.60192 21 9.37237 21 10.2724V17.636H19.3636V15.1815H4.63636V17.636H3ZM7.90909 12.7269C7.22727 12.7269 6.64773 12.4883 6.17045 12.011C5.69318 11.5337 5.45455 10.9542 5.45455 10.2724C5.45455 9.59055 5.69318 9.01101 6.17045 8.53374C6.64773 8.05646 7.22727 7.81783 7.90909 7.81783C8.59091 7.81783 9.17045 8.05646 9.64773 8.53374C10.125 9.01101 10.3636 9.59055 10.3636 10.2724C10.3636 10.9542 10.125 11.5337 9.64773 12.011C9.17045 12.4883 8.59091 12.7269 7.90909 12.7269Z" fill="#FFAE00"/>
</g>
</svg>
