<svg width="24" height="24" viewBox="0 0 24 24" fill="none" xmlns="http://www.w3.org/2000/svg">
<g id="material-symbols:restaurant">
<path id="Vector" d="M7.9 20V12.68C7.22 12.4933 6.65013 12.12 6.1904 11.56C5.73067 11 5.50053 10.3467 5.5 9.6V4H7.1V9.6H7.9V4H9.5V9.6H10.3V4H11.9V9.6C11.9 10.3467 11.6701 11 11.2104 11.56C10.7507 12.12 10.1805 12.4933 9.5 12.68V20H7.9ZM15.9 20V13.6H13.5V8C13.5 6.89333 13.8901 5.95013 14.6704 5.1704C15.4507 4.39067 16.3939 4.00053 17.5 4V20H15.9Z" fill="#5B73FF"/>
</g>
</svg>
