<svg width="24" height="24" viewBox="0 0 24 24" fill="none" xmlns="http://www.w3.org/2000/svg">
<g id="material-symbols:local-activity">
<path id="Vector" d="M9.76 15.1996L12 13.5196L14.2 15.1996L13.36 12.4796L15.6 10.7196H12.88L12 7.99961L11.12 10.7196H8.4L10.6 12.4796L9.76 15.1996ZM5.6 18.3996C5.16 18.3996 4.78347 18.2431 4.4704 17.93C4.15733 17.6169 4.00053 17.2401 4 16.7996V14.0996C4 13.9529 4.04667 13.8263 4.14 13.7196C4.23333 13.6129 4.35333 13.5463 4.5 13.5196C4.82 13.4129 5.08347 13.2196 5.2904 12.9396C5.49733 12.6596 5.60053 12.3463 5.6 11.9996C5.59947 11.6529 5.49627 11.3396 5.2904 11.0596C5.08453 10.7796 4.82107 10.5863 4.5 10.4796C4.35333 10.4529 4.23333 10.3863 4.14 10.2796C4.04667 10.1729 4 10.0463 4 9.89961V7.19961C4 6.75961 4.1568 6.38308 4.4704 6.07001C4.784 5.75694 5.16053 5.60014 5.6 5.59961H18.4C18.84 5.59961 19.2168 5.75641 19.5304 6.07001C19.844 6.38361 20.0005 6.76014 20 7.19961V9.89961C20 10.0463 19.9533 10.1729 19.86 10.2796C19.7667 10.3863 19.6467 10.4529 19.5 10.4796C19.18 10.5863 18.9168 10.7796 18.7104 11.0596C18.504 11.3396 18.4005 11.6529 18.4 11.9996C18.3995 12.3463 18.5029 12.6596 18.7104 12.9396C18.9179 13.2196 19.1811 13.4129 19.5 13.5196C19.6467 13.5463 19.7667 13.6129 19.86 13.7196C19.9533 13.8263 20 13.9529 20 14.0996V16.7996C20 17.2396 19.8435 17.6164 19.5304 17.93C19.2173 18.2436 18.8405 18.4001 18.4 18.3996H5.6Z" fill="#FF6FFF"/>
</g>
</svg>
