<svg xmlns="http://www.w3.org/2000/svg" width="21" height="21" viewBox="0 0 21 21" fill="none">
  <path fill-rule="evenodd" clip-rule="evenodd" d="M14.936 13.754C15.9752 12.4143 16.4649 10.729 16.3056 9.04104C16.1463 7.35306 15.3499 5.78917 14.0785 4.66753C12.8071 3.54589 11.1561 2.95075 9.46139 3.00319C7.76673 3.05563 6.15569 3.75171 4.95603 4.94982C3.75533 6.14876 3.05697 7.76042 3.00328 9.45637C2.94959 11.1523 3.5446 12.8049 4.66706 14.0774C5.78952 15.3499 7.35495 16.1465 9.04434 16.3049C10.7337 16.4633 12.42 15.9715 13.7594 14.9298L13.7952 14.9673L17.3302 18.5032C17.4076 18.5806 17.4995 18.642 17.6007 18.6839C17.7019 18.7258 17.8103 18.7474 17.9198 18.7474C18.0293 18.7474 18.1377 18.7258 18.2389 18.6839C18.34 18.642 18.4319 18.5806 18.5094 18.5032C18.5868 18.4257 18.6482 18.3338 18.6901 18.2326C18.732 18.1315 18.7536 18.0231 18.7536 17.9136C18.7536 17.8041 18.732 17.6956 18.6901 17.5945C18.6482 17.4933 18.5868 17.4014 18.5094 17.324L14.9735 13.789C14.9614 13.777 14.9489 13.7653 14.936 13.754ZM13.206 6.12899C13.6765 6.59189 14.0507 7.14336 14.307 7.7516C14.5633 8.35984 14.6967 9.01281 14.6994 9.67284C14.7021 10.3329 14.574 10.9869 14.3227 11.5972C14.0713 12.2075 13.7017 12.762 13.2349 13.2287C12.7682 13.6954 12.2137 14.0651 11.6034 14.3165C10.9931 14.5678 10.3391 14.6958 9.67905 14.6932C9.01902 14.6905 8.36605 14.5571 7.75781 14.3008C7.14957 14.0445 6.5981 13.6703 6.1352 13.1998C5.21013 12.2596 4.69408 10.9919 4.69945 9.67284C4.70482 8.35382 5.23118 7.09036 6.16387 6.15766C7.09657 5.22497 8.36003 4.69861 9.67905 4.69324C10.9981 4.68787 12.2658 5.20392 13.206 6.12899Z" fill="white"/>
</svg>