<svg width="21" height="20" viewBox="0 0 21 20" fill="none" xmlns="http://www.w3.org/2000/svg">
<g id="Search">
<path id="Vector" fill-rule="evenodd" clip-rule="evenodd" d="M14.9361 13.254C15.9752 11.9143 16.465 10.229 16.3057 8.54104C16.1464 6.85306 15.35 5.28917 14.0785 4.16753C12.8071 3.04589 11.1561 2.45075 9.46143 2.50319C7.76677 2.55563 6.15573 3.25171 4.95607 4.44982C3.75537 5.64876 3.05701 7.26042 3.00332 8.95637C2.94963 10.6523 3.54464 12.3049 4.66709 13.5774C5.78955 14.8499 7.35499 15.6465 9.04438 15.8049C10.7338 15.9633 12.42 15.4715 13.7594 14.4298L13.7952 14.4673L17.3302 18.0032C17.4077 18.0806 17.4996 18.142 17.6007 18.1839C17.7019 18.2258 17.8103 18.2474 17.9198 18.2474C18.0293 18.2474 18.1377 18.2258 18.2389 18.1839C18.3401 18.142 18.432 18.0806 18.5094 18.0032C18.5868 17.9257 18.6482 17.8338 18.6901 17.7327C18.7321 17.6315 18.7536 17.5231 18.7536 17.4136C18.7536 17.3041 18.7321 17.1957 18.6901 17.0945C18.6482 16.9933 18.5868 16.9014 18.5094 16.824L14.9736 13.289C14.9614 13.277 14.9489 13.2653 14.9361 13.254ZM13.2061 5.62899C13.6766 6.09189 14.0508 6.64336 14.3071 7.2516C14.5634 7.85984 14.6967 8.51281 14.6994 9.17284C14.7021 9.83287 14.5741 10.4869 14.3227 11.0972C14.0714 11.7075 13.7017 12.262 13.235 12.7287C12.7683 13.1954 12.2138 13.5651 11.6035 13.8165C10.9931 14.0678 10.3391 14.1958 9.67909 14.1932C9.01906 14.1905 8.36609 14.0571 7.75785 13.8008C7.14961 13.5445 6.59814 13.1703 6.13524 12.6998C5.21017 11.7596 4.69412 10.4919 4.69949 9.17284C4.70486 7.85382 5.23122 6.59036 6.16391 5.65766C7.09661 4.72497 8.36007 4.19861 9.67909 4.19324C10.9981 4.18787 12.2658 4.70392 13.2061 5.62899Z" fill="black"/>
</g>
</svg>
