<svg width="21" height="21" viewBox="0 0 21 21" fill="none" xmlns="http://www.w3.org/2000/svg">
<path id="Vector" d="M7.8 20.5L7.4 17.3C7.18333 17.2167 6.97933 17.1167 6.788 17C6.59667 16.8833 6.409 16.7583 6.225 16.625L3.25 17.875L0.5 13.125L3.075 11.175C3.05833 11.0583 3.05 10.946 3.05 10.838V10.163C3.05 10.0543 3.05833 9.94167 3.075 9.825L0.5 7.875L3.25 3.125L6.225 4.375C6.40833 4.24167 6.6 4.11667 6.8 4C7 3.88333 7.2 3.78333 7.4 3.7L7.8 0.5H13.3L13.7 3.7C13.9167 3.78333 14.121 3.88333 14.313 4C14.505 4.11667 14.6923 4.24167 14.875 4.375L17.85 3.125L20.6 7.875L18.025 9.825C18.0417 9.94167 18.05 10.0543 18.05 10.163V10.837C18.05 10.9457 18.0333 11.0583 18 11.175L20.575 13.125L17.825 17.875L14.875 16.625C14.6917 16.7583 14.5 16.8833 14.3 17C14.1 17.1167 13.9 17.2167 13.7 17.3L13.3 20.5H7.8ZM10.6 14C11.5667 14 12.3917 13.6583 13.075 12.975C13.7583 12.2917 14.1 11.4667 14.1 10.5C14.1 9.53333 13.7583 8.70833 13.075 8.025C12.3917 7.34167 11.5667 7 10.6 7C9.61667 7 8.78733 7.34167 8.112 8.025C7.43667 8.70833 7.09933 9.53333 7.1 10.5C7.10067 11.4667 7.43833 12.2917 8.113 12.975C8.78767 13.6583 9.61667 14 10.6 14Z" fill="#929292"/>
</svg>
