<svg width="14" height="14" viewBox="0 0 14 14" fill="none" xmlns="http://www.w3.org/2000/svg">
<path id="Vector" d="M12.8775 7.97931H7.97956V12.8773C7.97956 13.1371 7.87635 13.3862 7.69264 13.5699C7.50893 13.7537 7.25977 13.8569 6.99997 13.8569C6.74016 13.8569 6.491 13.7537 6.30729 13.5699C6.12358 13.3862 6.02037 13.1371 6.02037 12.8773V7.97931H1.12241C0.86261 7.97931 0.613447 7.87611 0.429738 7.6924C0.246029 7.50869 0.142822 7.25953 0.142822 6.99972C0.142822 6.73992 0.246029 6.49075 0.429738 6.30705C0.613447 6.12334 0.86261 6.02013 1.12241 6.02013H6.02037V1.12217C6.02037 0.862366 6.12358 0.613203 6.30729 0.429494C6.491 0.245785 6.74016 0.142578 6.99997 0.142578C7.25977 0.142578 7.50893 0.245785 7.69264 0.429494C7.87635 0.613203 7.97956 0.862366 7.97956 1.12217V6.02013H12.8775C13.1373 6.02013 13.3865 6.12334 13.5702 6.30705C13.7539 6.49075 13.8571 6.73992 13.8571 6.99972C13.8571 7.25953 13.7539 7.50869 13.5702 7.6924C13.3865 7.87611 13.1373 7.97931 12.8775 7.97931Z" fill="#5B73FF"/>
</svg>
