<?xml version="1.0" encoding="UTF-8"?>
<svg id="Calque_2" data-name="Calque 2" xmlns="http://www.w3.org/2000/svg" viewBox="0 0 806.6 863.38">
  <defs>
    <style>
      .cls-1 {
        fill: #1d1d1b;
      }
    </style>
  </defs>
  <g>
    <g>
      <path class="cls-1" d="M93.39,859.55c-8.84-44.01-15.91-78.81-21.23-104.38-5.32-25.57-9.38-45.29-12.19-59.18-2.81-13.88-4.77-23.56-5.87-29.04-1.11-5.48-1.96-10.23-2.56-14.25h30.71c3.21,28.13,7.87,53.28,14,75.48,6.12,22.19,12.2,53.38,18.22,93.56,5.62-23.01,11.14-51.09,16.56-84.24,5.42-33.15,9.93-60.77,13.55-82.88,1.81-.55,4.21-.82,7.22-.82s12.75.27,29.2.82c-7.83,34.52-15.61,68.95-23.33,103.29-7.73,34.34-15.41,68.67-23.03,103.01-7.22,0-14.2.05-20.92.14-6.73.09-13.5-.41-20.32-1.51Z"/>
      <path class="cls-1" d="M230.07,857.63c-15.86-13.7-23.74-30-23.64-48.9.1-18.9.05-37.67-.15-56.3.8-14.79,1.81-29.49,3.01-44.11,1.21-14.61,6.02-28.49,14.45-41.64,20.27-14.06,38.39-18.58,54.35-13.56,15.96,5.02,28.65,16.58,38.08,34.66,2.41,25.57,4.22,53.74,5.42,84.52,1.21,30.78-5.72,57.49-20.77,80.13-11.04,7.31-22.48,10.96-34.32,10.96s-23.99-1.92-36.43-5.75ZM265,840.92c9.63-2.92,16.16-10.78,19.57-23.56,3.41-12.78,5.22-26.89,5.42-42.33.2-15.43-.5-30.41-2.11-44.93-1.61-14.52-2.61-25.07-3.01-31.64-3.42-10.78-9.14-17.4-17.16-19.86-8.03-2.47-16.26,1.05-24.69,10.55-3.21,11.14-5.22,18.63-6.02,22.46-.81,3.83-1.91,11.6-3.31,23.28,0,7.49-.3,16.71-.91,27.67-.6,10.96-.3,21.83.91,32.6,1.2,10.78,4.06,20.46,8.58,29.04,4.52,8.59,12.09,14.16,22.73,16.71Z"/>
      <path class="cls-1" d="M396.86,861.19c-.2-18.63-.3-35.38-.3-50.27s-.3-30.27-.9-46.16c-6.83-16.8-15.71-35.2-26.65-55.2-10.94-20-19.72-38.49-26.34-55.48,5.22,0,10.13-.09,14.75-.27,4.61-.18,9.73-.27,15.35-.27,7.02,12.6,13.35,25.85,18.97,39.72,5.62,13.88,11.74,27.4,18.37,40.55,4.61-13.7,9.18-27.03,13.7-40,4.52-12.97,9.18-26.39,14-40.27,5.62,0,10.73.18,15.35.55,4.62.37,9.93.46,15.96.27-6.82,18.27-13.9,36.3-21.22,54.11-7.33,17.81-14,36.21-20.02,55.2-.2,16.26-.45,32.46-.75,48.63-.3,16.16-.45,32.28-.45,48.35-12.85-.18-20.52-.27-23.03-.27s-4.77.27-6.77.82Z"/>
      <path class="cls-1" d="M552.52,862.56c-17.66-.18-29.66-2.78-35.98-7.81-6.32-5.02-12.5-14.75-18.52-29.18-3.21-17.53-4.87-35.34-4.97-53.42-.11-18.08-.35-36.07-.75-53.97,3.01-18.81,7.32-33.29,12.95-43.42,5.62-10.13,18.97-17.67,40.04-22.6,24.28,0,39.39,6.62,45.31,19.86,5.92,13.24,8.58,29.82,7.98,49.72-4.62,0-9.08.05-13.4.14-4.32.09-8.58.14-12.8.14-.6-6.94-.9-14.93-.9-23.97s-3.61-15.75-10.84-20.14c-16.46-.55-26.09,2.7-28.9,9.73-2.81,7.03-5.42,16.76-7.83,29.18v32.6c0,7.86.05,14.57.15,20.14.1,5.57.25,11.05.45,16.44.2,5.39.5,12.47.91,21.23,3.41,13.15,9.88,21.28,19.42,24.38,9.53,3.11,18.52-1.64,26.95-14.24.8-4.93,1.3-8.67,1.51-11.23.2-2.55.6-8.86,1.21-18.9,4.21-.36,8.48-.69,12.8-.96,4.31-.27,8.68-.59,13.1-.96-.4,13.7-1.26,25.62-2.56,35.75-1.31,10.14-6.47,20.68-15.51,31.64-5.42,6.58-15.35,9.86-29.8,9.86Z"/>
      <path class="cls-1" d="M654.88,857.63c-15.86-13.7-23.74-30-23.64-48.9.1-18.9.05-37.67-.15-56.3.8-14.79,1.81-29.49,3.01-44.11,1.21-14.61,6.02-28.49,14.45-41.64,20.27-14.06,38.39-18.58,54.35-13.56,15.96,5.02,28.65,16.58,38.08,34.66,2.41,25.57,4.22,53.74,5.42,84.52,1.21,30.78-5.72,57.49-20.77,80.13-11.04,7.31-22.48,10.96-34.32,10.96s-23.99-1.92-36.43-5.75ZM689.8,840.92c9.63-2.92,16.16-10.78,19.57-23.56,3.41-12.78,5.22-26.89,5.42-42.33.2-15.43-.5-30.41-2.11-44.93-1.61-14.52-2.61-25.07-3.01-31.64-3.42-10.78-9.14-17.4-17.16-19.86-8.03-2.47-16.26,1.05-24.69,10.55-3.21,11.14-5.22,18.63-6.02,22.46-.81,3.83-1.91,11.6-3.31,23.28,0,7.49-.3,16.71-.91,27.67-.6,10.96-.3,21.83.91,32.6,1.2,10.78,4.06,20.46,8.58,29.04,4.52,8.59,12.09,14.16,22.73,16.71Z"/>
    </g>
    <circle class="cls-1" cx="791.92" cy="846.81" r="14.68"/>
  </g>
  <g>
    <path class="cls-1" d="M458.69,503.53c14.72,27.07-.27,60.75-16.43,85.17-17.56,23.38-37.65-4.2-49.18-20.36-20.13-27.32-41.38-52.68-59.16-81.43-16.89-26.12-31.85-50.5-43.66-79.05-10.94-25.35-27.86-65.9-36.22-92.25-3.15-9.9-4.97-17.62-4.34-21.94.34-3.86,3.45-5.17,6.97-4.25,9.83,2.27,31.53,16.45,46.23,21.55,16.04,6.42,33.04,6.55,49.63,10.84,17.63,4.24,40.73,14.25,58.25,26.4,19.37,12.78,30.52,31.99,32.16,54.28,1.69,17.83-3.87,35.29-2.27,53.92.93,16.83,10.06,31.8,17.68,46.4l.35.72Z"/>
    <path class="cls-1" d="M227.26,177.59c1.77,18.13,4.38,38.26,12.29,54.37,4.05,7.64,10.41,13.91,18.3,21.51,4.15,3.97,8.64,8.18,13.06,12.18,28.46,27.79,42.16,17.36,43.18-13.9.25-14.4-.46-34.43,3.29-56.47,1.35-8.86,3.5-19.02.6-27.39-3.59-10.52-15.34-17.2-20.82-27.19-6.34-9.29-5.17-23.64-14.84-30.45-8.99-4.88-21.14,2.79-30.44,11.17-15,13.96-25.68,35.11-24.64,55.37l.03.79Z"/>
    <path class="cls-1" d="M620.75,288.17c3.53-15.9,5.76-36.36-1.23-50.99-7.69-16.21-26.07-9.79-35.29,1.25-18.95,19.91-20.53,52.88-37.85,72.8-13.26,16.1-37.13,20.41-51.17,35.03-13.88,14.96-13.31,34.58-17.19,55.4-2.46,16.85-5.67,34.38-4.5,51.12.51,16.48,14.11,26.36,27.78,20.46,14.51-5.98,21.73-17.45,34.09-31.12,20.03-23.67,41.08-49.16,55.33-74.79,13.2-24.12,22.89-51.68,29.85-78.36l.19-.81Z"/>
    <path class="cls-1" d="M496.44,63.23c-15.06-28.65-5.51-54.38,28.35-33.51,12.58,7.33,23.75,16.91,34.36,26.73,21.85,21.04,48.07,46.59,64.04,74.86,7.5,13.72,11.42,30.03,3.2,43-14.7,22.43-47.3,24.43-63.01.92-5.33-6.83-9.74-14.53-14.29-21.94-10.42-17.72-23.17-33.89-33.26-52.32-6.64-12.04-12.91-25.16-19.08-37.1l-.32-.65Z"/>
    <path class="cls-1" d="M304.94,93.27c-3.27-19.69,17.54-35.83,29.29-51.6,23.88-32.77,98.43-63.44,124.81-20.75,11.36,16.48,8.36,30.54-10.02,39.94-12.97,7.41-27.46,13.72-40.9,20.43-24.8,10.93-86.47,48.79-103.02,12.6l-.16-.62Z"/>
  </g>
</svg>