<?xml version="1.0" encoding="UTF-8"?>
<svg id="Calque_1" data-name="Calque 1" xmlns="http://www.w3.org/2000/svg" viewBox="0 0 859.63 393.95">
  <defs>
    <style>
      .cls-1 {
        fill: #fff;
      }
    </style>
  </defs>
  <path class="cls-1" d="M110.69,280.66c6.94,12.77-.13,28.66-7.75,40.18-8.28,11.03-17.76-1.98-23.2-9.61-9.5-12.89-19.52-24.85-27.91-38.41-7.97-12.32-15.02-23.82-20.59-37.29-5.16-11.96-13.14-31.08-17.09-43.52-1.49-4.67-2.34-8.31-2.05-10.35.16-1.82,1.63-2.44,3.29-2.01,4.64,1.07,14.87,7.76,21.81,10.17,7.57,3.03,15.58,3.09,23.41,5.11,8.32,2,19.21,6.72,27.48,12.45,9.13,6.03,14.39,15.09,15.17,25.6.8,8.41-1.82,16.65-1.07,25.44.44,7.94,4.75,15,8.34,21.88l.17.34Z"/>
  <path class="cls-1" d="M1.52,126.91c.84,8.55,2.07,18.05,5.8,25.65,1.91,3.61,4.91,6.56,8.63,10.15,1.96,1.87,4.07,3.86,6.16,5.75,13.43,13.11,19.89,8.19,20.37-6.56.12-6.79-.22-16.24,1.55-26.64.64-4.18,1.65-8.97.28-12.92-1.69-4.96-7.23-8.11-9.82-12.82-2.99-4.38-2.44-11.15-7-14.36-4.24-2.3-9.97,1.32-14.36,5.27-7.08,6.58-12.11,16.56-11.62,26.12v.37Z"/>
  <path class="cls-1" d="M187.13,179.07c1.67-7.5,2.72-17.15-.58-24.05-3.63-7.65-12.3-4.62-16.65.59-8.94,9.39-9.68,24.95-17.85,34.34-6.25,7.59-17.52,9.63-24.14,16.53-6.54,7.06-6.28,16.31-8.11,26.13-1.16,7.95-2.68,16.22-2.12,24.11.24,7.77,6.66,12.43,13.1,9.65,6.84-2.82,10.25-8.23,16.08-14.68,9.45-11.16,19.38-23.19,26.1-35.28,6.23-11.38,10.8-24.38,14.08-36.96l.09-.38Z"/>
  <path class="cls-1" d="M128.5,72.97c-7.11-13.51-2.6-25.65,13.37-15.81,5.93,3.46,11.2,7.98,16.21,12.61,10.31,9.92,22.67,21.98,30.21,35.31,3.54,6.47,5.38,14.16,1.51,20.28-6.93,10.58-22.31,11.52-29.72.44-2.51-3.22-4.6-6.85-6.74-10.35-4.91-8.36-10.93-15.99-15.69-24.68-3.13-5.68-6.09-11.87-9-17.5l-.15-.31Z"/>
  <path class="cls-1" d="M38.17,87.14c-1.54-9.29,8.27-16.9,13.81-24.34,11.27-15.46,46.43-29.93,58.87-9.79,5.36,7.77,3.94,14.4-4.73,18.84-6.12,3.49-12.95,6.47-19.29,9.64-11.7,5.16-40.79,23.01-48.59,5.94l-.07-.29Z"/>
  <g>
    <path class="cls-1" d="M268.56,321.91c-7.32-36.48-13.19-65.31-17.59-86.5-4.41-21.19-7.78-37.54-10.1-49.04-2.33-11.5-3.95-19.53-4.87-24.07-.92-4.54-1.62-8.48-2.12-11.81h25.45c2.66,23.31,6.53,44.16,11.6,62.55,5.07,18.39,10.11,44.24,15.1,77.54,4.65-19.07,9.23-42.34,13.72-69.82,4.49-27.47,8.23-50.36,11.23-68.68,1.5-.45,3.49-.68,5.99-.68s10.56.23,24.2.68c-6.49,28.61-12.94,57.14-19.34,85.6-6.41,28.46-12.77,56.91-19.09,85.37-5.99,0-11.77.04-17.34.11-5.57.08-11.19-.34-16.84-1.25Z"/>
    <path class="cls-1" d="M381.83,320.32c-13.14-11.35-19.67-24.86-19.59-40.53.08-15.66.04-31.22-.12-46.66.66-12.26,1.5-24.44,2.5-36.55,1-12.11,4.99-23.61,11.98-34.51,16.8-11.65,31.81-15.4,45.04-11.24,13.22,4.16,23.74,13.74,31.56,28.72,2,21.19,3.49,44.54,4.49,70.04,1,25.51-4.74,47.64-17.21,66.41-9.15,6.06-18.63,9.08-28.44,9.08s-19.88-1.59-30.19-4.77ZM410.77,306.47c7.98-2.42,13.39-8.93,16.22-19.53,2.83-10.59,4.32-22.29,4.49-35.08.17-12.79-.42-25.2-1.74-37.23-1.34-12.03-2.16-20.78-2.5-26.22-2.83-8.93-7.57-14.42-14.22-16.46-6.65-2.04-13.47.87-20.46,8.74-2.66,9.23-4.33,15.44-4.99,18.62-.67,3.18-1.58,9.61-2.74,19.3,0,6.21-.25,13.85-.75,22.93-.5,9.08-.25,18.09.75,27.02,1,8.93,3.37,16.95,7.11,24.07,3.74,7.12,10.02,11.73,18.84,13.85Z"/>
    <path class="cls-1" d="M520.06,323.27c-.17-15.44-.25-29.32-.25-41.66s-.25-25.09-.75-38.26c-5.66-13.92-13.02-29.17-22.08-45.75-9.07-16.58-16.34-31.9-21.83-45.98,4.32,0,8.4-.07,12.23-.23,3.82-.15,8.07-.23,12.72-.23,5.82,10.44,11.06,21.42,15.72,32.92,4.66,11.51,9.73,22.71,15.22,33.6,3.82-11.35,7.61-22.4,11.35-33.15,3.74-10.74,7.61-21.87,11.6-33.38,4.65,0,8.9.15,12.72.45,3.83.3,8.23.38,13.22.23-5.66,15.14-11.52,30.08-17.59,44.84-6.07,14.76-11.6,30.01-16.59,45.75-.17,13.47-.37,26.9-.62,40.3-.25,13.4-.37,26.76-.37,40.07-10.65-.15-17.01-.23-19.09-.23s-3.95.23-5.61.68Z"/>
    <path class="cls-1" d="M649.05,324.41c-14.64-.15-24.58-2.3-29.82-6.47-5.24-4.16-10.36-12.22-15.35-24.18-2.66-14.53-4.04-29.29-4.12-44.27-.09-14.98-.29-29.89-.62-44.73,2.5-15.59,6.07-27.59,10.73-35.99,4.65-8.4,15.72-14.64,33.18-18.73,20.12,0,32.64,5.49,37.55,16.46,4.9,10.98,7.11,24.71,6.61,41.21-3.83,0-7.53.04-11.1.11-3.58.08-7.11.11-10.6.11-.5-5.75-.75-12.37-.75-19.87s-2.99-13.05-8.98-16.69c-13.64-.45-21.62,2.23-23.95,8.06-2.33,5.83-4.49,13.89-6.49,24.18v27.02c0,6.51.04,12.07.12,16.69.08,4.62.21,9.16.37,13.62.17,4.47.41,10.33.75,17.6,2.83,10.9,8.19,17.64,16.09,20.21,7.9,2.58,15.35-1.36,22.33-11.8.66-4.09,1.08-7.19,1.25-9.31.16-2.12.5-7.34,1-15.66,3.49-.3,7.02-.57,10.6-.8,3.57-.23,7.19-.49,10.85-.79-.33,11.35-1.04,21.23-2.12,29.63-1.08,8.4-5.37,17.14-12.85,26.22-4.49,5.45-12.72,8.17-24.7,8.17Z"/>
    <path class="cls-1" d="M733.88,320.32c-13.14-11.35-19.67-24.86-19.59-40.53.08-15.66.04-31.22-.12-46.66.66-12.26,1.5-24.44,2.5-36.55,1-12.11,4.99-23.61,11.98-34.51,16.8-11.65,31.81-15.4,45.04-11.24,13.22,4.16,23.74,13.74,31.56,28.72,2,21.19,3.49,44.54,4.49,70.04,1,25.51-4.74,47.64-17.21,66.41-9.15,6.06-18.63,9.08-28.44,9.08s-19.88-1.59-30.19-4.77ZM762.82,306.47c7.98-2.42,13.39-8.93,16.22-19.53,2.83-10.59,4.32-22.29,4.49-35.08.17-12.79-.42-25.2-1.74-37.23-1.34-12.03-2.16-20.78-2.5-26.22-2.83-8.93-7.57-14.42-14.22-16.46-6.65-2.04-13.47.87-20.46,8.74-2.66,9.23-4.33,15.44-4.99,18.62-.67,3.18-1.58,9.61-2.74,19.3,0,6.21-.25,13.85-.75,22.93-.5,9.08-.25,18.09.75,27.02,1,8.93,3.37,16.95,7.11,24.07,3.74,7.12,10.02,11.73,18.84,13.85Z"/>
  </g>
  <circle class="cls-1" cx="847.46" cy="311.35" r="12.17"/>
</svg>